<?xml version="1.0" standalone="no"?><!DOCTYPE svg PUBLIC "-//W3C//DTD SVG 1.1//EN" "http://www.w3.org/Graphics/SVG/1.1/DTD/svg11.dtd"><svg t="1573530196523" class="icon" viewBox="0 0 1024 1024" version="1.1" xmlns="http://www.w3.org/2000/svg" p-id="3388" xmlns:xlink="http://www.w3.org/1999/xlink" width="32" height="32"><defs><style type="text/css"></style></defs><path d="M867.476107 258.910794c-19.442818-45.844118-47.174416-87.083357-82.58081-122.489752s-76.543304-63.137992-122.489752-82.58081c-47.481408-20.056801-97.930403-30.289863-150.016689-30.289863-51.983955 0-102.43295 10.233062-150.016689 30.289863-45.844118 19.442818-87.083357 47.174416-122.489752 82.58081-35.406394 35.406394-63.137992 76.543304-82.58081 122.489752-20.056801 47.481408-30.289863 97.930403-30.289863 150.016689 0 88.106664 61.500703 212.745359 182.967148 370.334513 88.311325 114.405633 175.087691 203.330942 178.771593 207.117175 12.995989 13.302981 34.485419 13.302981 47.583738 0 0 0 90.357937-92.711542 178.566932-207.219505 121.364115-157.589155 182.967148-282.125519 182.967148-370.334513C897.766994 356.841198 887.533932 306.392202 867.476107 258.910794zM780.39275 561.400107c-28.243251 52.393277-67.947532 111.847367-117.884874 176.72498-55.258535 71.836095-111.131053 134.462434-144.081513 170.175821-3.27458 3.479241-8.800433 3.479241-11.972683 0-32.848129-35.611056-88.413656-98.032734-143.67219-169.664168-49.937342-64.979944-89.743954-124.536364-118.089535-177.031972-33.871435-62.626339-50.960649-113.996311-50.960649-152.779615 0-85.139076 33.155121-165.16162 93.325525-225.434356 60.170404-60.170404 140.29528-93.325525 225.434356-93.325525s165.16162 33.155121 225.434356 93.325525c60.170404 60.170404 93.325525 140.29528 93.325525 225.434356C831.252091 447.506127 814.161854 498.876098 780.39275 561.400107z" p-id="3389" fill="#bfbfbf"></path><path d="M514.333138 222.378763c-92.813872 0-168.33387 72.757071-168.33387 162.194032 0 42.97886 18.010189 85.548398 49.323359 116.759237 32.029484 31.927153 74.29203 49.52802 119.010511 49.52802 44.718481 0 86.981027-17.600867 119.010511-49.52802 31.31317-31.210839 49.323359-73.780377 49.323359-116.759237C682.667008 295.135834 607.148034 222.378763 514.333138 222.378763zM514.333138 484.34515c-55.156204 0-101.818967-45.741787-101.818967-99.772354 0-52.8026 45.639456-95.67913 101.818967-95.67913s101.818967 42.87653 101.818967 95.67913C616.152105 438.705694 569.591673 484.34515 514.333138 484.34515z" p-id="3390" fill="#bfbfbf"></path></svg>